<svg xmlns="http://www.w3.org/2000/svg" width="176.225" height="33.985" viewBox="0 0 176.225 33.985"><path d="M1.225-12.25a12.8,12.8,0,0,1,1.627-6.457A11.621,11.621,0,0,1,7.3-23.153a12.613,12.613,0,0,1,6.318-1.592,12.427,12.427,0,0,1,7.175,2.1,10.98,10.98,0,0,1,4.305,5.81H19.46A5.84,5.84,0,0,0,17.1-19.46a6.933,6.933,0,0,0-3.518-.875,7.236,7.236,0,0,0-3.8,1,6.807,6.807,0,0,0-2.59,2.817,9.288,9.288,0,0,0-.927,4.27A9.316,9.316,0,0,0,7.193-8a6.784,6.784,0,0,0,2.59,2.835,7.236,7.236,0,0,0,3.8,1A6.826,6.826,0,0,0,17.1-5.057,5.946,5.946,0,0,0,19.46-7.7H25.1a10.921,10.921,0,0,1-4.288,5.828A12.48,12.48,0,0,1,13.615.21,12.613,12.613,0,0,1,7.3-1.383,11.656,11.656,0,0,1,2.852-5.81,12.7,12.7,0,0,1,1.225-12.25ZM37.905.315a10.213,10.213,0,0,1-5.04-1.243,8.947,8.947,0,0,1-3.517-3.518A10.54,10.54,0,0,1,28.07-9.7a10.316,10.316,0,0,1,1.313-5.25,9.121,9.121,0,0,1,3.587-3.518A10.412,10.412,0,0,1,38.045-19.7a10.412,10.412,0,0,1,5.075,1.242,9.121,9.121,0,0,1,3.587,3.518A10.316,10.316,0,0,1,48.02-9.7a10.106,10.106,0,0,1-1.348,5.25,9.331,9.331,0,0,1-3.64,3.518A10.585,10.585,0,0,1,37.905.315Zm0-4.27a5.1,5.1,0,0,0,2.5-.647A4.706,4.706,0,0,0,42.28-6.545a6.546,6.546,0,0,0,.7-3.15,5.837,5.837,0,0,0-1.453-4.253,4.775,4.775,0,0,0-3.552-1.487,4.662,4.662,0,0,0-3.518,1.487A5.925,5.925,0,0,0,33.04-9.7a6.019,6.019,0,0,0,1.382,4.253A4.552,4.552,0,0,0,37.905-3.955Zm37.8-15.715a7.784,7.784,0,0,1,5.757,2.188,8.256,8.256,0,0,1,2.188,6.108V0h-4.9V-10.71A4.844,4.844,0,0,0,77.6-14.193a4.153,4.153,0,0,0-3.15-1.207,4.211,4.211,0,0,0-3.168,1.207A4.8,4.8,0,0,0,70.1-10.71V0h-4.9V-10.71a4.844,4.844,0,0,0-1.155-3.483A4.153,4.153,0,0,0,60.9-15.4a4.257,4.257,0,0,0-3.2,1.207,4.8,4.8,0,0,0-1.173,3.483V0h-4.9V-19.39h4.9v2.345a6.521,6.521,0,0,1,2.433-1.925,7.589,7.589,0,0,1,3.272-.7,8.418,8.418,0,0,1,4.06.963,6.745,6.745,0,0,1,2.765,2.747,7.02,7.02,0,0,1,2.747-2.7A7.822,7.822,0,0,1,75.705-19.67Zm17.5,3.08a7.441,7.441,0,0,1,2.607-2.222,7.9,7.9,0,0,1,3.8-.892,8.479,8.479,0,0,1,4.5,1.225A8.619,8.619,0,0,1,107.292-15a11.2,11.2,0,0,1,1.173,5.233A11.409,11.409,0,0,1,107.292-4.5a8.818,8.818,0,0,1-3.185,3.552,8.3,8.3,0,0,1-4.5,1.26A7.824,7.824,0,0,1,95.848-.56a8.072,8.072,0,0,1-2.643-2.205v12h-4.9V-19.39h4.9ZM103.46-9.765a6.085,6.085,0,0,0-.717-3.028,4.968,4.968,0,0,0-1.89-1.943,5.058,5.058,0,0,0-2.537-.665,4.894,4.894,0,0,0-2.5.682,5.066,5.066,0,0,0-1.89,1.977A6.185,6.185,0,0,0,93.205-9.7a6.185,6.185,0,0,0,.717,3.045,5.066,5.066,0,0,0,1.89,1.978,4.894,4.894,0,0,0,2.5.682,4.863,4.863,0,0,0,2.537-.7,5.2,5.2,0,0,0,1.89-2A6.26,6.26,0,0,0,103.46-9.765Zm7.315,0a11.222,11.222,0,0,1,1.173-5.215,8.594,8.594,0,0,1,3.185-3.5,8.48,8.48,0,0,1,4.5-1.225,7.9,7.9,0,0,1,3.8.875,7.706,7.706,0,0,1,2.607,2.205V-19.39h4.935V0h-4.935V-2.835a7.288,7.288,0,0,1-2.607,2.258,7.978,7.978,0,0,1-3.833.893,8.24,8.24,0,0,1-4.463-1.26A8.818,8.818,0,0,1,111.947-4.5,11.409,11.409,0,0,1,110.775-9.765Zm15.26.07a6.285,6.285,0,0,0-.7-3.063,4.935,4.935,0,0,0-1.89-1.96,5.051,5.051,0,0,0-2.555-.682,4.963,4.963,0,0,0-2.52.665,5.008,5.008,0,0,0-1.872,1.943,6.085,6.085,0,0,0-.717,3.028A6.285,6.285,0,0,0,116.5-6.7a5.166,5.166,0,0,0,1.89,2.013,4.8,4.8,0,0,0,2.5.7,5.051,5.051,0,0,0,2.555-.682,4.935,4.935,0,0,0,1.89-1.96A6.285,6.285,0,0,0,126.035-9.7ZM146.51-19.67a7.474,7.474,0,0,1,5.6,2.188,8.375,8.375,0,0,1,2.135,6.108V0h-4.9V-10.71a5.028,5.028,0,0,0-1.155-3.552,4.091,4.091,0,0,0-3.15-1.243,4.192,4.192,0,0,0-3.2,1.243,4.98,4.98,0,0,0-1.173,3.552V0h-4.9V-19.39h4.9v2.415a6.769,6.769,0,0,1,2.5-1.978A7.741,7.741,0,0,1,146.51-19.67Zm30.94.28-12,28.56H160.23l4.2-9.66-7.77-18.9h5.495L167.16-5.845l5.075-13.545Z" transform="translate(-1.225 24.745)"/></svg>